# xmcd
#
# Track frame offsets: 
#        150
#        11591
#        23600
#        35833
#        49200
#        61670
#        74304
#        86470
#        99945
#        112748
#        125347
#        139300
#        152175
#        165389
#        178605
#        191960
#        205382
#        217814
#        231112
#        245167
#        258536
#        270706
#        283041
#        296251
#        308858
#
# Disc length: 4292 seconds
#
# Revision: 0
# Processed by: cddbd v1.5.2PL0 Copyright (c) Steve Scherf et al.
# Submitted via: ExactAudioCopyFreeDBPlugin 1.0
#
DISCID=6710c219
DTITLE=Wilf Carter - (Montana Slim) - Cowboy Songs - CD3
DYEAR=1997
DGENRE=Country
TTITLE0=Rescue From The Moose River Goldmine
TTITLE1=Keep Smiling Old Pal
TTITLE2=Don't Let Me Down Old Pal
TTITLE3=Won't You Be The Same Old Pal
TTITLE4=The Last Ride Down Lariat Trail
TTITLE5=Rose Of My Heart
TTITLE6=Memories Of My Grey Haired Mother In The West
TTITLE7=Broken Down Cowboy
TTITLE8=That Tumbledown Shack By The Trail
TTITLE9=Covered Wagon Headed West
TTITLE10=Midnight, The Unconquered Outlaw
TTITLE11=The Fate Of Old Strawberry Road
TTITLE12=The Cowboy's Wedding In May
TTITLE13=Sweetheart Of My Childhood Days
TTITLE14=Ridin' A Maverick
TTITLE15=There'll Be No Blues Up Yonder
TTITLE16=Goodbye Little Pal Of My Dreams
TTITLE17=I Loved Her Till She Done Me Wrong
TTITLE18=Under The Light Of The Texas Moon
TTITLE19=I'm Still Waiting For You
TTITLE20=Longing For My Mississippi Home
TTITLE21=Old Alberta Plains
TTITLE22=The Cowboy's Heavenly Dream
TTITLE23=My Old Montana Home (My Old Montana Blues)
TTITLE24=Why Did I Ever Start Roaming - Roaming My Whole Life Away
EXTD=
EXTT0=
EXTT1=
EXTT2=
EXTT3=
EXTT4=
EXTT5=
EXTT6=
EXTT7=
EXTT8=
EXTT9=
EXTT10=
EXTT11=
EXTT12=
EXTT13=
EXTT14=
EXTT15=
EXTT16=
EXTT17=
EXTT18=
EXTT19=
EXTT20=
EXTT21=
EXTT22=
EXTT23=
EXTT24=
PLAYORDER=
